<?xml version="1.0" encoding="utf-8" ?>
<svg xmlns="http://www.w3.org/2000/svg" xmlns:xlink="http://www.w3.org/1999/xlink" width="64" height="64">
	<path fill="#FECB5C" d="M52.0899 38.884C53.2647 39.0587 54.0495 41.807 54.7873 42.6936C55.8752 44.0012 58.2042 44.9227 59.7152 45.7283C56.194 48.2014 54.7704 48.9494 52.648 52.8654C50.9792 51.9548 50.4996 49.8154 49.1732 48.528C47.9611 47.3515 46.1018 46.4125 44.6626 45.5041C48.9263 43.9326 49.5667 42.2031 52.0899 38.884Z"/>
	<path fill="#FECB5C" d="M32.9924 47.403C34.1742 47.9131 35.2705 50.7111 35.8262 51.8351C37.5805 52.5835 39.2338 53.5769 40.8929 54.5138C37.0237 56.0421 35.4733 57.7523 33.347 61.2878C33.2439 61.2547 33.1498 61.2134 33.0519 61.1675C31.8172 60.5888 30.9502 57.8326 29.842 56.8516C28.7802 55.9116 26.8922 55.2377 25.5951 54.6093C28.6294 52.4373 30.7281 50.358 32.9924 47.403Z"/>
	<path fill="#FECB5C" d="M10.4114 1.38521C10.4191 1.38973 10.4271 1.39387 10.4346 1.39877C10.447 1.4069 10.4588 1.41589 10.471 1.42428C11.5005 2.13064 11.9486 3.45922 12.6756 4.44504C14.116 6.3984 16.1854 7.3452 18.2783 8.43632C14.0322 10.8605 13.4701 11.696 10.7278 15.5991C10.1405 15.4124 8.7291 12.5875 8.08981 11.8921C6.71189 10.3931 4.9799 9.56476 3.2079 8.6241C6.41118 6.78163 8.59063 4.56653 10.4114 1.38521Z"/>
	<path fill="#FECB5C" d="M34.1969 17.4452C33.1857 16.5244 30.893 14.6748 30.813 13.264C30.8045 13.1155 30.8173 12.9708 30.8423 12.8245C33.0514 10.4773 38.8857 12.7921 41.2236 10.5008C43.2676 8.49741 44.7685 3.02044 46.8923 0.225592C49.2905 3.18323 50.991 7.50217 52.5194 10.9944C56.0238 10.9953 60.2479 11.5819 63.39 13.1372L63.4265 13.1557C61.1781 16.4377 58.1188 18.8792 55.5929 21.9136C56.1702 24.5096 58.078 30.225 56.9917 32.6544C56.5239 32.9621 56.3788 33.0705 55.7986 32.951C52.9774 32.3697 49.6481 29.2958 46.8428 28.1892C44.594 29.5484 39.8504 33.2016 37.2443 32.8736C36.7787 32.5421 36.5649 32.3959 36.4583 31.7935C36.3132 30.9739 36.6683 29.8948 36.8905 29.1113C37.6647 26.8905 37.8901 24.1581 38.1769 21.82C37.0526 20.2004 35.6004 18.8206 34.1969 17.4452Z"/>
	<path fill="#FDB153" d="M34.1969 17.4452C35.6004 18.8206 37.0526 20.2004 38.1769 21.82C37.8901 24.1581 37.6647 26.8905 36.8905 29.1113C35.9039 29.183 33.5864 30.8948 32.7367 31.5076C27.7453 35.1074 23.7264 40.518 20.8345 45.8918C18.8321 49.6128 17.1728 53.5034 15.696 57.4596C15.2222 58.7288 14.9659 60.0974 14.4423 61.3362C14.2123 61.8803 14.0976 62.0758 13.6275 62.4355C12.3244 60.5061 11.4893 57.661 10.6588 55.4734C8.28673 58.2281 5.47504 60.7257 2.97657 63.39C3.96235 59.0139 4.88053 54.4326 6.30472 50.1814C4.93158 50.4933 2.47903 51.2896 1.13848 50.9019C0.820688 49.7179 3.8719 43.2745 4.56142 41.9295C10.7708 29.817 21.313 21.5985 34.1969 17.4452Z"/>
	<path fill="#FECB5C" d="M32.2458 21.5174C32.5843 21.496 32.9653 21.4581 33.2952 21.5453C33.8049 21.68 33.8636 21.7657 34.1142 22.1999C33.9322 22.9355 33.3999 23.2773 32.831 23.7142C32.4323 23.7546 31.8767 23.8557 31.5031 23.6941C31.1347 23.5349 31.1191 23.3708 30.9875 23.0235C31.32 22.2156 31.5812 22.0506 32.2458 21.5174Z"/>
	<path fill="#FECB5C" d="M27.4161 28.9175C27.7843 28.9622 28.0803 29.0149 28.393 29.2278C28.7486 29.4699 28.7154 29.5993 28.7908 30.0022C28.4234 30.8788 27.627 31.4036 26.9043 31.9762C26.525 32.0442 26.1759 31.8252 25.8418 31.6686L25.7012 31.0935C26.0294 30.1508 26.7028 29.5816 27.4161 28.9175Z"/>
	<path fill="#FECB5C" d="M23.1613 33.1542C23.8205 33.2701 23.969 33.2808 24.4487 33.7388C24.6527 34.8332 23.0081 36.5652 22.3767 37.391C19.0283 41.7705 16.7161 46.262 14.246 51.1694C13.7605 51.1829 13.6083 51.1831 13.1855 50.9412C13.082 50.7469 13.013 50.5347 13.0008 50.3136C12.8093 46.8388 20.5564 35.9228 23.1613 33.1542Z"/>
	<path fill="#FECB5C" d="M27.5195 23.9541C28.0283 23.9495 28.2864 24.0382 28.6995 24.3339C28.8848 25.4906 27.2401 26.3289 26.3624 26.8766C16.8473 32.8142 13.8124 37.4483 8.02235 46.6524C7.43013 46.5377 7.31293 46.4607 6.86216 46.0575C6.77775 45.7466 6.7832 45.5012 6.89332 45.1976C10.147 36.2275 19.0188 27.9408 27.5195 23.9541Z"/>
</svg>
