<?xml version="1.0" encoding="utf-8"?>
<!-- Generator: Adobe Illustrator 22.1.0, SVG Export Plug-In . SVG Version: 6.00 Build 0)  -->
<svg version="1.1" id="Layer_1" xmlns="http://www.w3.org/2000/svg" xmlns:xlink="http://www.w3.org/1999/xlink" x="0px" y="0px"
	 width="24px" height="24px" viewBox="0 0 24 24" style="enable-background:new 0 0 24 24;" xml:space="preserve">
<style type="text/css">
	.st0{fill:#585D63;}
	.st1{fill:none;}
</style>
<title>refresh</title>
<desc>Created with Sketch.</desc>
<path class="st0" d="M23.7,10.9c-0.4-0.4-1-0.4-1.4,0L21,12.2c0,0,0-0.1,0-0.1c0-2.4-0.9-4.7-2.6-6.4c-1.7-1.7-3.9-2.6-6.3-2.7H12
	C9.6,3.1,7.4,4,5.7,5.7C4,7.3,3.1,9.6,3.1,12c0,2.4,0.9,4.7,2.6,6.4C7.3,20,9.6,21,12,21H12c2.4,0,4.6-0.9,6.3-2.6L16.9,17l0,0
	c-1.3,1.3-3.1,2-4.9,2h0c-1.9,0-3.6-0.7-4.9-2.1c-1.3-1.3-2-3.1-2-4.9c0-1.9,0.7-3.6,2.1-4.9c1.3-1.3,3.1-2,4.9-2h0
	c1.9,0,3.6,0.7,4.9,2.1c1.3,1.3,2,3.1,2,4.9c0,0,0,0.1,0,0.1l-1.3-1.3c-0.4-0.4-1-0.4-1.4,0c-0.4,0.4-0.4,1,0,1.4l0.3,0.3l2,2
	l0.7,0.7c0.2,0.2,0.4,0.3,0.7,0.3h0c0.1,0,0.2,0,0.3-0.1c0.1,0,0.1,0,0.2-0.1c0.1,0,0.2-0.1,0.2-0.2l3-3
	C24.1,11.9,24.1,11.3,23.7,10.9z"/>
<rect class="st1" width="24" height="24"/>
</svg>
